<?xml version="1.0" encoding="utf-8"?>
<!-- Generator: Adobe Illustrator 19.2.1, SVG Export Plug-In . SVG Version: 6.00 Build 0)  -->
<svg version="1.1" id="layer" xmlns="http://www.w3.org/2000/svg" xmlns:xlink="http://www.w3.org/1999/xlink" x="0px" y="0px"
	 viewBox="0 0 652 652" style="enable-background:new 0 0 652 652;" xml:space="preserve">
<style type="text/css">
	.st0{fill:#BB2727;}
</style>
<g>
	<path class="st0" d="M139.4,310c9.1,0,17,3,23.7,9.2c6.7,6.1,10.1,13.6,10.1,22.4c0,8.7-3.3,16-9.9,21.8
		c-6.6,5.8-14.5,8.8-23.7,8.8l-112.8,0.4v-25.3h120.6v-11.8h-93c-9.2,0-17.1-3-23.8-8.9c-6.7-5.9-10.1-13.3-10.1-22.1
		c0-9.1,3.9-16.6,11.6-22.5c7.2-5.6,15.8-8.4,25.7-8.4l108.6-0.7v25.1l-118.7,0.1v12H139.4z"/>
	<path class="st0" d="M221,272.3h104.3V298H211.1v11.6h114.3v25.8l-113.6,0.2V346h113.6v26.4H220.8c-5.8,0-10.9-0.9-15.2-2.6
		c-4.3-1.8-8.2-4.7-11.7-9c-2.9-3.3-5-6.5-6.3-9.6c-1.3-3.1-2-6.7-2-10.8v-36.1c0-4.9,0.8-9.3,2.4-12.9c1.6-3.7,4.2-7.2,7.8-10.5
		c3.6-3.3,7.3-5.6,11.1-6.7C210.7,272.9,215.4,272.3,221,272.3"/>
	<path class="st0" d="M337.7,294.5c0-4.9,1.3-9.2,3.8-12.8c2.6-3.6,6.2-6.5,11-8.8c1.7-0.8,3.4-1.4,5.1-1.7c1.7-0.4,3.4-0.5,5.1-0.5
		c3.7,0,7.3,0.8,10.7,2.5c3.4,1.7,6.8,4.1,10,7.2l67.8,66.8V273h25.4v72.7c0,5.9-1,10.9-3.1,15c-2.1,4-5.5,7.4-10.2,10
		c-1.7,0.9-3.6,1.6-5.7,2.2c-2.1,0.5-4,0.8-5.8,0.8c-3.7,0-7.3-0.8-10.9-2.5c-3.6-1.7-7-4.1-10.1-7.2l-67.8-66.3v74.9l-25.2-0.4
		V294.5z"/>
	<path class="st0" d="M514.9,372.1l-28.4,0.4l38.7-75.2c5.3-10.2,10.2-17,14.8-20.4c3.9-2.9,8.6-4.3,13.9-4.3c5,0,9.5,1.6,13.5,4.7
		c4,3.1,8.8,10,14.4,20.6l38.7,74.6l-27.5-0.4l-15-26h-49.3L514.9,372.1z M541.7,320.6h23.6l-11.7-21.2L541.7,320.6z"/>
</g>
</svg>
